<svg width="83" height="110" viewBox="0 0 83 110" fill="none" xmlns="http://www.w3.org/2000/svg">
<path d="M71.8941 13.6941H54.7764C54.7764 6.14095 48.6355 0 41.0823 0C33.5292 0 27.3882 6.14095 27.3882 13.6941H10.2706C4.60037 13.6941 0 18.2945 0 23.9647V99.2823C0 104.953 4.60037 109.553 10.2706 109.553H71.8941C77.5643 109.553 82.1647 104.953 82.1647 99.2823V23.9647C82.1647 18.2945 77.5643 13.6941 71.8941 13.6941ZM20.5412 90.7235C17.6954 90.7235 15.4059 88.434 15.4059 85.5882C15.4059 82.7424 17.6954 80.4529 20.5412 80.4529C23.387 80.4529 25.6765 82.7424 25.6765 85.5882C25.6765 88.434 23.387 90.7235 20.5412 90.7235ZM20.5412 70.1823C17.6954 70.1823 15.4059 67.8928 15.4059 65.047C15.4059 62.2012 17.6954 59.9117 20.5412 59.9117C23.387 59.9117 25.6765 62.2012 25.6765 65.047C25.6765 67.8928 23.387 70.1823 20.5412 70.1823ZM20.5412 49.6411C17.6954 49.6411 15.4059 47.3517 15.4059 44.5059C15.4059 41.66 17.6954 39.3706 20.5412 39.3706C23.387 39.3706 25.6765 41.66 25.6765 44.5059C25.6765 47.3517 23.387 49.6411 20.5412 49.6411ZM41.0823 8.55882C43.9281 8.55882 46.2176 10.8483 46.2176 13.6941C46.2176 16.5399 43.9281 18.8294 41.0823 18.8294C38.2365 18.8294 35.947 16.5399 35.947 13.6941C35.947 10.8483 38.2365 8.55882 41.0823 8.55882ZM68.4705 87.3C68.4705 88.2414 67.7003 89.0117 66.7588 89.0117H35.947C35.0056 89.0117 34.2353 88.2414 34.2353 87.3V83.8764C34.2353 82.935 35.0056 82.1647 35.947 82.1647H66.7588C67.7003 82.1647 68.4705 82.935 68.4705 83.8764V87.3ZM68.4705 66.7588C68.4705 67.7003 67.7003 68.4705 66.7588 68.4705H35.947C35.0056 68.4705 34.2353 67.7003 34.2353 66.7588V63.3353C34.2353 62.3938 35.0056 61.6235 35.947 61.6235H66.7588C67.7003 61.6235 68.4705 62.3938 68.4705 63.3353V66.7588ZM68.4705 46.2176C68.4705 47.1591 67.7003 47.9294 66.7588 47.9294H35.947C35.0056 47.9294 34.2353 47.1591 34.2353 46.2176V42.7941C34.2353 41.8526 35.0056 41.0823 35.947 41.0823H66.7588C67.7003 41.0823 68.4705 41.8526 68.4705 42.7941V46.2176Z" fill="#21FA0F"/>
</svg>
