<svg width="83" height="65" viewBox="0 0 83 65" fill="none" xmlns="http://www.w3.org/2000/svg">
<path d="M75.7961 0.288343H7.32559C3.54544 0.288343 0.478531 3.35525 0.478531 7.1354V57.3471C0.478531 61.1273 3.54544 64.1942 7.32559 64.1942H75.7961C79.5763 64.1942 82.6432 61.1273 82.6432 57.3471V7.1354C82.6432 3.35525 79.5763 0.288343 75.7961 0.288343ZM25.5844 13.9825C30.6198 13.9825 34.7138 18.0764 34.7138 23.1119C34.7138 28.1473 30.6198 32.2413 25.5844 32.2413C20.549 32.2413 16.455 28.1473 16.455 23.1119C16.455 18.0764 20.549 13.9825 25.5844 13.9825ZM41.5609 47.7613C41.5609 49.2733 40.1344 50.5001 38.3656 50.5001H12.8032C11.0344 50.5001 9.60794 49.2733 9.60794 47.7613V45.0224C9.60794 40.4863 13.9016 36.806 19.1938 36.806H19.907C21.6616 37.5335 23.5731 37.9471 25.5844 37.9471C27.5957 37.9471 29.5215 37.5335 31.2617 36.806H31.975C37.2672 36.806 41.5609 40.4863 41.5609 45.0224V47.7613ZM73.5138 40.2295C73.5138 40.8571 73.0002 41.3707 72.3726 41.3707H51.8314C51.2038 41.3707 50.6903 40.8571 50.6903 40.2295V37.9471C50.6903 37.3195 51.2038 36.806 51.8314 36.806H72.3726C73.0002 36.806 73.5138 37.3195 73.5138 37.9471V40.2295ZM73.5138 31.1001C73.5138 31.7277 73.0002 32.2413 72.3726 32.2413H51.8314C51.2038 32.2413 50.6903 31.7277 50.6903 31.1001V28.8177C50.6903 28.1901 51.2038 27.6766 51.8314 27.6766H72.3726C73.0002 27.6766 73.5138 28.1901 73.5138 28.8177V31.1001ZM73.5138 21.9707C73.5138 22.5983 73.0002 23.1119 72.3726 23.1119H51.8314C51.2038 23.1119 50.6903 22.5983 50.6903 21.9707V19.6883C50.6903 19.0607 51.2038 18.5472 51.8314 18.5472H72.3726C73.0002 18.5472 73.5138 19.0607 73.5138 19.6883V21.9707Z" fill="#21FA0F"/>
</svg>
