<svg width="73" height="80" viewBox="0 0 73 80" fill="none" xmlns="http://www.w3.org/2000/svg">
<path d="M31.6223 0.744875C28.3085 0.652489 25.5498 3.26162 25.4574 6.57533L24.7885 30.566L24.7049 33.5648L24.1615 53.0573C16.617 48.9484 13.1582 48.2487 9.29269 48.141C4.80617 48.0159 0.277143 49.6222 0.0941691 55.3464L13.4147 61.7611L22.6159 71.4901C26.9887 76.1138 33.0244 78.8143 39.388 78.9917L59.4368 79.5507C66.0612 79.7353 71.5819 74.5142 71.7666 67.8897L72.6027 37.9014C72.647 36.3107 72.0576 34.7676 70.9642 33.6114C69.8708 32.4553 68.3629 31.7809 66.7722 31.7365C65.6356 31.7065 64.5138 32.0002 63.5376 32.5831C62.5614 33.1661 61.771 34.0145 61.2584 35.0294C60.8861 34.7603 60.6909 34.5681 60.6909 34.5681C60.7353 32.9775 60.1459 31.4343 59.0525 30.2782C57.9591 29.122 56.4512 28.4476 54.8605 28.4033C53.2698 28.3589 51.7266 28.9483 50.5705 30.0417C49.4144 31.1351 48.7399 32.643 48.6956 34.2337L48.7792 31.2349C48.8716 27.9212 46.2625 25.1624 42.9487 25.07C39.635 24.9776 36.8762 27.5867 36.7839 30.9004L37.4527 6.90976C37.5451 3.59605 34.936 0.837262 31.6223 0.744875ZM0.0941691 55.3464L0.088312 55.3462L0.087169 55.3872C0.0875878 55.3722 0.093691 55.3614 0.0941691 55.3464Z" fill="#25A981"/>
</svg>
